<mxfile host="65bd71144e" scale="1" border="10">
    <diagram id="PsLG1nvYOHh64BqABNhy" name="Page-1">
        <mxGraphModel dx="591" dy="704" grid="1" gridSize="10" guides="1" tooltips="1" connect="1" arrows="1" fold="1" page="1" pageScale="1" pageWidth="850" pageHeight="1100" background="#ffffff" math="0" shadow="0">
            <root>
                <mxCell id="0"/>
                <mxCell id="1" parent="0"/>
                <mxCell id="0ByKZncCbMo1XXu-yyDl-10" value="SmartParking&lt;br&gt;&lt;br&gt;&lt;br&gt;&lt;br&gt;&lt;br&gt;&lt;br&gt;&lt;br&gt;&lt;br&gt;&lt;br&gt;&lt;br&gt;&lt;br&gt;&lt;br&gt;&lt;br&gt;&lt;br&gt;&lt;br&gt;&lt;br&gt;&lt;br&gt;&lt;br&gt;&lt;br&gt;&lt;br&gt;&lt;br&gt;&lt;br&gt;&lt;br&gt;&lt;br&gt;&lt;br&gt;&lt;br&gt;&lt;br&gt;&lt;br&gt;&lt;br&gt;&lt;br&gt;&lt;br&gt;&lt;br&gt;&lt;br&gt;&lt;br&gt;&lt;br&gt;&lt;br&gt;&lt;br&gt;&lt;br&gt;&lt;br&gt;&lt;br&gt;&lt;br&gt;&lt;br&gt;" style="rounded=0;whiteSpace=wrap;html=1;fillColor=#33FFFF;" parent="1" vertex="1">
                    <mxGeometry x="160" y="120" width="640" height="610" as="geometry"/>
                </mxCell>
                <mxCell id="0ByKZncCbMo1XXu-yyDl-1" value="Utente" style="shape=umlActor;verticalLabelPosition=bottom;verticalAlign=top;html=1;outlineConnect=0;fillColor=#B3B3B3;" parent="1" vertex="1">
                    <mxGeometry x="80" y="280" width="30" height="60" as="geometry"/>
                </mxCell>
                <mxCell id="0ByKZncCbMo1XXu-yyDl-2" value="Utente&lt;br&gt;base" style="shape=umlActor;verticalLabelPosition=bottom;verticalAlign=top;html=1;outlineConnect=0;fillColor=#FFFF33;" parent="1" vertex="1">
                    <mxGeometry x="80" y="400" width="30" height="60" as="geometry"/>
                </mxCell>
                <mxCell id="0ByKZncCbMo1XXu-yyDl-3" value="Utente&lt;br&gt;premium" style="shape=umlActor;verticalLabelPosition=bottom;verticalAlign=top;html=1;outlineConnect=0;fillColor=#0000FF;" parent="1" vertex="1">
                    <mxGeometry x="80" y="520" width="30" height="60" as="geometry"/>
                </mxCell>
                <mxCell id="0ByKZncCbMo1XXu-yyDl-6" value="" style="endArrow=block;html=1;endFill=0;" parent="1" edge="1">
                    <mxGeometry width="50" height="50" relative="1" as="geometry">
                        <mxPoint x="70" y="430" as="sourcePoint"/>
                        <mxPoint x="70" y="330" as="targetPoint"/>
                        <Array as="points">
                            <mxPoint x="50" y="430"/>
                            <mxPoint x="50" y="330"/>
                        </Array>
                    </mxGeometry>
                </mxCell>
                <mxCell id="0ByKZncCbMo1XXu-yyDl-7" value="" style="endArrow=block;html=1;endFill=0;" parent="1" edge="1">
                    <mxGeometry width="50" height="50" relative="1" as="geometry">
                        <mxPoint x="70" y="570" as="sourcePoint"/>
                        <mxPoint x="70" y="310" as="targetPoint"/>
                        <Array as="points">
                            <mxPoint x="40" y="570"/>
                            <mxPoint x="40" y="310"/>
                        </Array>
                    </mxGeometry>
                </mxCell>
                <mxCell id="0ByKZncCbMo1XXu-yyDl-8" value="Amministratore" style="shape=umlActor;verticalLabelPosition=bottom;verticalAlign=top;html=1;outlineConnect=0;fillColor=#33FF33;" parent="1" vertex="1">
                    <mxGeometry x="80" y="640" width="30" height="60" as="geometry"/>
                </mxCell>
                <mxCell id="0ByKZncCbMo1XXu-yyDl-9" value="" style="endArrow=block;html=1;endFill=0;" parent="1" edge="1">
                    <mxGeometry width="50" height="50" relative="1" as="geometry">
                        <mxPoint x="70" y="670" as="sourcePoint"/>
                        <mxPoint x="70" y="290" as="targetPoint"/>
                        <Array as="points">
                            <mxPoint x="30" y="670"/>
                            <mxPoint x="30" y="290"/>
                        </Array>
                    </mxGeometry>
                </mxCell>
                <mxCell id="4" value="login" style="ellipse;whiteSpace=wrap;html=1;" vertex="1" parent="1">
                    <mxGeometry x="210" y="230" width="100" height="50" as="geometry"/>
                </mxCell>
                <mxCell id="5" value="" style="endArrow=none;html=1;" edge="1" parent="1" source="0ByKZncCbMo1XXu-yyDl-1" target="4">
                    <mxGeometry width="50" height="50" relative="1" as="geometry">
                        <mxPoint x="110" y="310" as="sourcePoint"/>
                        <mxPoint x="390" y="420" as="targetPoint"/>
                    </mxGeometry>
                </mxCell>
                <mxCell id="8" value="Non-utente" style="shape=umlActor;verticalLabelPosition=bottom;verticalAlign=top;html=1;outlineConnect=0;fillColor=#FFFFFF;" vertex="1" parent="1">
                    <mxGeometry x="80" y="160" width="30" height="60" as="geometry"/>
                </mxCell>
                <mxCell id="9" value="registrazione" style="ellipse;whiteSpace=wrap;html=1;" vertex="1" parent="1">
                    <mxGeometry x="200" y="160" width="120" height="50" as="geometry"/>
                </mxCell>
                <mxCell id="12" value="utente non trovato" style="ellipse;whiteSpace=wrap;html=1;" vertex="1" parent="1">
                    <mxGeometry x="400" y="170" width="100" height="50" as="geometry"/>
                </mxCell>
                <mxCell id="15" value="" style="endArrow=block;html=1;endFill=0;" edge="1" parent="1">
                    <mxGeometry width="50" height="50" relative="1" as="geometry">
                        <mxPoint x="70" y="550" as="sourcePoint"/>
                        <mxPoint x="70" y="450" as="targetPoint"/>
                        <Array as="points">
                            <mxPoint x="50" y="550"/>
                            <mxPoint x="50" y="450"/>
                        </Array>
                    </mxGeometry>
                </mxCell>
                <mxCell id="16" value="richiesta&lt;br&gt;sosta" style="ellipse;whiteSpace=wrap;html=1;" vertex="1" parent="1">
                    <mxGeometry x="210" y="320" width="100" height="50" as="geometry"/>
                </mxCell>
                <mxCell id="17" value="" style="endArrow=none;html=1;" edge="1" parent="1" source="0ByKZncCbMo1XXu-yyDl-2" target="16">
                    <mxGeometry width="50" height="50" relative="1" as="geometry">
                        <mxPoint x="120" y="320" as="sourcePoint"/>
                        <mxPoint x="229.67975020721667" y="279.78409159068724" as="targetPoint"/>
                    </mxGeometry>
                </mxCell>
                <mxCell id="10" value="" style="endArrow=none;html=1;" edge="1" parent="1" source="8" target="9">
                    <mxGeometry width="50" height="50" relative="1" as="geometry">
                        <mxPoint x="120" y="110" as="sourcePoint"/>
                        <mxPoint x="225.2786404500041" y="263.81966011250097" as="targetPoint"/>
                    </mxGeometry>
                </mxCell>
                <mxCell id="18" value="richiesta&lt;br&gt;ricarica" style="ellipse;whiteSpace=wrap;html=1;" vertex="1" parent="1">
                    <mxGeometry x="375" y="300" width="100" height="50" as="geometry"/>
                </mxCell>
                <mxCell id="19" value="" style="edgeStyle=none;html=1;dashed=1;" edge="1" parent="1" source="18" target="16">
                    <mxGeometry relative="1" as="geometry">
                        <mxPoint x="270" y="760" as="sourcePoint"/>
                        <mxPoint x="320" y="265" as="targetPoint"/>
                    </mxGeometry>
                </mxCell>
                <mxCell id="22" value="&lt;span style=&quot;font-size: 11px;&quot;&gt;&amp;lt;&amp;lt;extends&amp;gt;&amp;gt;&lt;/span&gt;" style="edgeLabel;html=1;align=center;verticalAlign=middle;resizable=0;points=[];fontSize=12;fontFamily=Helvetica;fontColor=default;labelBackgroundColor=none;rotation=0;" vertex="1" connectable="0" parent="19">
                    <mxGeometry x="0.3435" y="-2" relative="1" as="geometry">
                        <mxPoint x="-3" y="-17" as="offset"/>
                    </mxGeometry>
                </mxCell>
                <mxCell id="23" value="prenota&lt;br&gt;sosta" style="ellipse;whiteSpace=wrap;html=1;" vertex="1" parent="1">
                    <mxGeometry x="210" y="520" width="100" height="50" as="geometry"/>
                </mxCell>
                <mxCell id="25" value="" style="endArrow=none;html=1;" edge="1" parent="1" source="0ByKZncCbMo1XXu-yyDl-3" target="23">
                    <mxGeometry width="50" height="50" relative="1" as="geometry">
                        <mxPoint x="120" y="440" as="sourcePoint"/>
                        <mxPoint x="220" y="440" as="targetPoint"/>
                    </mxGeometry>
                </mxCell>
                <mxCell id="26" value="posto auto liberi&lt;br&gt;non disponibili" style="ellipse;whiteSpace=wrap;html=1;" vertex="1" parent="1">
                    <mxGeometry x="200" y="410" width="120" height="50" as="geometry"/>
                </mxCell>
                <mxCell id="27" value="" style="edgeStyle=none;html=1;dashed=1;" edge="1" parent="1" source="23" target="26">
                    <mxGeometry relative="1" as="geometry">
                        <mxPoint x="420" y="265" as="sourcePoint"/>
                        <mxPoint x="320" y="265" as="targetPoint"/>
                    </mxGeometry>
                </mxCell>
                <mxCell id="28" value="&amp;lt;&amp;lt;include&amp;gt;&amp;gt;" style="edgeLabel;html=1;align=center;verticalAlign=middle;resizable=0;points=[];labelBackgroundColor=none;" vertex="1" connectable="0" parent="27">
                    <mxGeometry x="-0.2473" relative="1" as="geometry">
                        <mxPoint y="-10" as="offset"/>
                    </mxGeometry>
                </mxCell>
                <mxCell id="29" value="multa" style="ellipse;whiteSpace=wrap;html=1;" vertex="1" parent="1">
                    <mxGeometry x="375" y="510" width="100" height="50" as="geometry"/>
                </mxCell>
                <mxCell id="35" value="utente rifiuta per coda troppo lunga" style="ellipse;whiteSpace=wrap;html=1;" vertex="1" parent="1">
                    <mxGeometry x="580" y="230" width="158.51" height="50" as="geometry"/>
                </mxCell>
                <mxCell id="38" value="visualizzare il tempo di attesa" style="ellipse;whiteSpace=wrap;html=1;" vertex="1" parent="1">
                    <mxGeometry x="538.4" y="310" width="100" height="50" as="geometry"/>
                </mxCell>
                <mxCell id="39" value="" style="edgeStyle=none;html=1;dashed=1;" edge="1" parent="1" target="38" source="18">
                    <mxGeometry relative="1" as="geometry">
                        <mxPoint x="480.00251471689296" y="371.132495094369" as="sourcePoint"/>
                        <mxPoint x="498.4" y="220" as="targetPoint"/>
                    </mxGeometry>
                </mxCell>
                <mxCell id="40" value="&lt;span style=&quot;font-size: 11px;&quot;&gt;&amp;lt;&amp;lt;include&amp;gt;&amp;gt;&lt;/span&gt;" style="edgeLabel;html=1;align=center;verticalAlign=middle;resizable=0;points=[];fontSize=12;fontFamily=Helvetica;fontColor=default;labelBackgroundColor=none;rotation=0;" vertex="1" connectable="0" parent="39">
                    <mxGeometry x="0.3435" y="-2" relative="1" as="geometry">
                        <mxPoint x="-7" y="-23" as="offset"/>
                    </mxGeometry>
                </mxCell>
                <mxCell id="41" value="richiesta&lt;br&gt;notifica" style="ellipse;whiteSpace=wrap;html=1;" vertex="1" parent="1">
                    <mxGeometry x="538.4" y="370" width="100" height="50" as="geometry"/>
                </mxCell>
                <mxCell id="42" value="" style="edgeStyle=none;html=1;dashed=1;" edge="1" parent="1" target="41" source="18">
                    <mxGeometry relative="1" as="geometry">
                        <mxPoint x="460.00251471689296" y="451.132495094369" as="sourcePoint"/>
                        <mxPoint x="478.4" y="300" as="targetPoint"/>
                    </mxGeometry>
                </mxCell>
                <mxCell id="43" value="&lt;span style=&quot;font-size: 11px;&quot;&gt;&amp;lt;&amp;lt;include&amp;gt;&amp;gt;&lt;/span&gt;" style="edgeLabel;html=1;align=center;verticalAlign=middle;resizable=0;points=[];fontSize=12;fontFamily=Helvetica;fontColor=default;labelBackgroundColor=none;rotation=0;" vertex="1" connectable="0" parent="42">
                    <mxGeometry x="0.3435" y="-2" relative="1" as="geometry">
                        <mxPoint x="-17" y="-13" as="offset"/>
                    </mxGeometry>
                </mxCell>
                <mxCell id="44" value="" style="edgeStyle=none;html=1;dashed=1;" edge="1" parent="1" source="4" target="12">
                    <mxGeometry relative="1" as="geometry">
                        <mxPoint x="464.7885078251654" y="378.88706196819203" as="sourcePoint"/>
                        <mxPoint x="553.7793611923689" y="356.2804985749631" as="targetPoint"/>
                    </mxGeometry>
                </mxCell>
                <mxCell id="45" value="&lt;span style=&quot;font-size: 11px;&quot;&gt;&amp;lt;&amp;lt;include&amp;gt;&amp;gt;&lt;/span&gt;" style="edgeLabel;html=1;align=center;verticalAlign=middle;resizable=0;points=[];fontSize=12;fontFamily=Helvetica;fontColor=default;labelBackgroundColor=none;rotation=0;" vertex="1" connectable="0" parent="44">
                    <mxGeometry x="0.3435" y="-2" relative="1" as="geometry">
                        <mxPoint x="-4" y="19" as="offset"/>
                    </mxGeometry>
                </mxCell>
                <mxCell id="46" value="" style="edgeStyle=none;html=1;dashed=1;" edge="1" parent="1" source="38" target="35">
                    <mxGeometry relative="1" as="geometry">
                        <mxPoint x="484.7204295863655" y="337.6400228098955" as="sourcePoint"/>
                        <mxPoint x="548.7721812883385" y="341.95534854529683" as="targetPoint"/>
                    </mxGeometry>
                </mxCell>
                <mxCell id="47" value="&lt;span style=&quot;font-size: 11px;&quot;&gt;&amp;lt;&amp;lt;include&amp;gt;&amp;gt;&lt;/span&gt;" style="edgeLabel;html=1;align=center;verticalAlign=middle;resizable=0;points=[];fontSize=12;fontFamily=Helvetica;fontColor=default;labelBackgroundColor=none;rotation=0;" vertex="1" connectable="0" parent="46">
                    <mxGeometry x="0.3435" y="-2" relative="1" as="geometry">
                        <mxPoint x="-42" y="-1" as="offset"/>
                    </mxGeometry>
                </mxCell>
                <mxCell id="48" value="" style="edgeStyle=none;html=1;dashed=1;" edge="1" parent="1" source="16" target="26">
                    <mxGeometry relative="1" as="geometry">
                        <mxPoint x="312.3999152002543" y="541.7500264999205" as="sourcePoint"/>
                        <mxPoint x="382" y="520" as="targetPoint"/>
                    </mxGeometry>
                </mxCell>
                <mxCell id="49" value="&amp;lt;&amp;lt;include&amp;gt;&amp;gt;" style="edgeLabel;html=1;align=center;verticalAlign=middle;resizable=0;points=[];labelBackgroundColor=none;" vertex="1" connectable="0" parent="48">
                    <mxGeometry x="-0.2473" relative="1" as="geometry">
                        <mxPoint x="19" y="-5" as="offset"/>
                    </mxGeometry>
                </mxCell>
                <mxCell id="50" value="&lt;b&gt;solo per premium&lt;/b&gt;&lt;br&gt;notifica ID&lt;br&gt;posto auto" style="ellipse;whiteSpace=wrap;html=1;" vertex="1" parent="1">
                    <mxGeometry x="350" y="390" width="150" height="50" as="geometry"/>
                </mxCell>
                <mxCell id="51" value="" style="edgeStyle=none;html=1;dashed=1;" edge="1" parent="1" source="50" target="16">
                    <mxGeometry relative="1" as="geometry">
                        <mxPoint x="386.39588957133526" y="340.86601332759733" as="sourcePoint"/>
                        <mxPoint x="318.59250528443465" y="349.10999935946256" as="targetPoint"/>
                    </mxGeometry>
                </mxCell>
                <mxCell id="52" value="&lt;span style=&quot;font-size: 11px;&quot;&gt;&amp;lt;&amp;lt;extends&amp;gt;&amp;gt;&lt;/span&gt;" style="edgeLabel;html=1;align=center;verticalAlign=middle;resizable=0;points=[];fontSize=12;fontFamily=Helvetica;fontColor=default;labelBackgroundColor=none;rotation=0;" vertex="1" connectable="0" parent="51">
                    <mxGeometry x="0.3435" y="-2" relative="1" as="geometry">
                        <mxPoint x="31" y="-2" as="offset"/>
                    </mxGeometry>
                </mxCell>
                <mxCell id="53" value="" style="edgeStyle=none;html=1;dashed=1;" edge="1" parent="1" source="18" target="50">
                    <mxGeometry relative="1" as="geometry">
                        <mxPoint x="386.39588957133526" y="340.86601332759733" as="sourcePoint"/>
                        <mxPoint x="318.59250528443465" y="349.10999935946256" as="targetPoint"/>
                    </mxGeometry>
                </mxCell>
                <mxCell id="54" value="&lt;span style=&quot;font-size: 11px;&quot;&gt;&amp;lt;&amp;lt;extends&amp;gt;&amp;gt;&lt;/span&gt;" style="edgeLabel;html=1;align=center;verticalAlign=middle;resizable=0;points=[];fontSize=12;fontFamily=Helvetica;fontColor=default;labelBackgroundColor=none;rotation=0;" vertex="1" connectable="0" parent="53">
                    <mxGeometry x="0.3435" y="-2" relative="1" as="geometry">
                        <mxPoint x="2" y="-17" as="offset"/>
                    </mxGeometry>
                </mxCell>
                <mxCell id="55" value="" style="edgeStyle=none;html=1;dashed=1;" edge="1" parent="1" source="23" target="29">
                    <mxGeometry relative="1" as="geometry">
                        <mxPoint x="270" y="530" as="sourcePoint"/>
                        <mxPoint x="270" y="470" as="targetPoint"/>
                    </mxGeometry>
                </mxCell>
                <mxCell id="56" value="&amp;lt;&amp;lt;include&amp;gt;&amp;gt;" style="edgeLabel;html=1;align=center;verticalAlign=middle;resizable=0;points=[];labelBackgroundColor=none;" vertex="1" connectable="0" parent="55">
                    <mxGeometry x="-0.2473" relative="1" as="geometry">
                        <mxPoint y="-10" as="offset"/>
                    </mxGeometry>
                </mxCell>
                <mxCell id="57" value="visualizza stato posti auto" style="ellipse;whiteSpace=wrap;html=1;" vertex="1" parent="1">
                    <mxGeometry x="210" y="600" width="100" height="50" as="geometry"/>
                </mxCell>
                <mxCell id="58" value="" style="endArrow=none;html=1;" edge="1" parent="1" source="0ByKZncCbMo1XXu-yyDl-8" target="57">
                    <mxGeometry width="50" height="50" relative="1" as="geometry">
                        <mxPoint x="120" y="559.5454545454545" as="sourcePoint"/>
                        <mxPoint x="220.0915751684389" y="556.5123765100473" as="targetPoint"/>
                    </mxGeometry>
                </mxCell>
                <mxCell id="59" value="gestione&lt;br&gt;tariffe" style="ellipse;whiteSpace=wrap;html=1;" vertex="1" parent="1">
                    <mxGeometry x="460" y="650" width="100" height="50" as="geometry"/>
                </mxCell>
                <mxCell id="60" value="visualizza pagamenti" style="ellipse;whiteSpace=wrap;html=1;" vertex="1" parent="1">
                    <mxGeometry x="360" y="600" width="100" height="50" as="geometry"/>
                </mxCell>
                <mxCell id="62" value="modifica tariffa" style="ellipse;whiteSpace=wrap;html=1;" vertex="1" parent="1">
                    <mxGeometry x="620" y="570" width="100" height="50" as="geometry"/>
                </mxCell>
                <mxCell id="63" value="visualizza tariffa" style="ellipse;whiteSpace=wrap;html=1;" vertex="1" parent="1">
                    <mxGeometry x="680" y="650" width="100" height="50" as="geometry"/>
                </mxCell>
                <mxCell id="64" value="" style="endArrow=none;html=1;" edge="1" parent="1" source="0ByKZncCbMo1XXu-yyDl-8" target="60">
                    <mxGeometry width="50" height="50" relative="1" as="geometry">
                        <mxPoint x="120" y="675.909090909091" as="sourcePoint"/>
                        <mxPoint x="226.1052213542822" y="646.9713032670138" as="targetPoint"/>
                        <Array as="points">
                            <mxPoint x="330" y="670"/>
                        </Array>
                    </mxGeometry>
                </mxCell>
                <mxCell id="65" value="nessun pagamento trovato" style="ellipse;whiteSpace=wrap;html=1;" vertex="1" parent="1">
                    <mxGeometry x="480" y="550" width="100" height="50" as="geometry"/>
                </mxCell>
                <mxCell id="66" value="" style="edgeStyle=none;html=1;dashed=1;" edge="1" parent="1" target="65" source="60">
                    <mxGeometry relative="1" as="geometry">
                        <mxPoint x="475" y="632" as="sourcePoint"/>
                        <mxPoint x="435.27" y="560" as="targetPoint"/>
                    </mxGeometry>
                </mxCell>
                <mxCell id="67" value="&amp;lt;&amp;lt;include&amp;gt;&amp;gt;" style="edgeLabel;html=1;align=center;verticalAlign=middle;resizable=0;points=[];labelBackgroundColor=none;" vertex="1" connectable="0" parent="66">
                    <mxGeometry x="-0.2473" relative="1" as="geometry">
                        <mxPoint x="35" y="8" as="offset"/>
                    </mxGeometry>
                </mxCell>
                <mxCell id="70" value="" style="edgeStyle=none;html=1;dashed=1;" edge="1" parent="1" source="59" target="62">
                    <mxGeometry relative="1" as="geometry">
                        <mxPoint x="458.761749275865" y="619.2081762209439" as="sourcePoint"/>
                        <mxPoint x="501.5889360201336" y="601.0046099916112" as="targetPoint"/>
                    </mxGeometry>
                </mxCell>
                <mxCell id="71" value="&amp;lt;&amp;lt;include&amp;gt;&amp;gt;" style="edgeLabel;html=1;align=center;verticalAlign=middle;resizable=0;points=[];labelBackgroundColor=none;" vertex="1" connectable="0" parent="70">
                    <mxGeometry x="-0.2473" relative="1" as="geometry">
                        <mxPoint x="35" y="8" as="offset"/>
                    </mxGeometry>
                </mxCell>
                <mxCell id="72" value="" style="edgeStyle=none;html=1;dashed=1;" edge="1" parent="1" source="59" target="63">
                    <mxGeometry relative="1" as="geometry">
                        <mxPoint x="614.4416178148958" y="663.1905564113233" as="sourcePoint"/>
                        <mxPoint x="655.4869380183736" y="626.7893884281123" as="targetPoint"/>
                    </mxGeometry>
                </mxCell>
                <mxCell id="73" value="&amp;lt;&amp;lt;include&amp;gt;&amp;gt;" style="edgeLabel;html=1;align=center;verticalAlign=middle;resizable=0;points=[];labelBackgroundColor=none;" vertex="1" connectable="0" parent="72">
                    <mxGeometry x="-0.2473" relative="1" as="geometry">
                        <mxPoint x="15" y="8" as="offset"/>
                    </mxGeometry>
                </mxCell>
                <mxCell id="74" value="" style="endArrow=none;html=1;" edge="1" parent="1" source="0ByKZncCbMo1XXu-yyDl-8" target="59">
                    <mxGeometry width="50" height="50" relative="1" as="geometry">
                        <mxPoint x="120" y="680" as="sourcePoint"/>
                        <mxPoint x="386.7818080585041" y="653.6852329670915" as="targetPoint"/>
                        <Array as="points">
                            <mxPoint x="180" y="680"/>
                        </Array>
                    </mxGeometry>
                </mxCell>
            </root>
        </mxGraphModel>
    </diagram>
</mxfile>
